<?xml version="1.0" ?><!DOCTYPE svg  PUBLIC '-//W3C//DTD SVG 1.1//EN'  'http://www.w3.org/Graphics/SVG/1.1/DTD/svg11.dtd'><svg xmlns="http://www.w3.org/2000/svg" width="462.000" height="462.000" viewBox="14.000 14.000 462.000 462.000"><path d="M164.33333333333343 316.6666666666667 C88.45020203080031,316.66666666666674 30.0,250.90980211613294 30.0,173.33333333333334 C30.0,94.17251919091962 94.17251919091962,30.0 173.33333333333334,30.0 C252.49414747574707,30.0 316.6666666666667,94.17251919091962 316.6666666666667,173.33333333333331" stroke="#d82626" fill="none" stroke-width="5.0" stroke-linecap="round"/><path d="M316.6666666666667 173.33333333333331 C316.6666666666667,218.1111111111111 316.6666666666667,262.8888888888889 316.6666666666667,307.6666666666667" stroke="#d82626" fill="none" stroke-width="5.0" stroke-linecap="round"/><path d="M316.6666666666667 325.6666666666667 C316.6666666666667,390.5757502303046 300.9201383297159,460.0 245.0,460.0 C186.05224287244627,460.0 173.33333333333334,385.29556939055976 173.33333333333334,316.6666666666667" stroke="#d82626" fill="none" stroke-width="5.0" stroke-linecap="round"/><path d="M173.33333333333334 316.6666666666667 C173.33333333333334,239.09019788386718 231.78353536413363,173.33333333333334 307.6666666666667,173.33333333333334" stroke="#d82626" fill="none" stroke-width="5.0" stroke-linecap="round"/><path d="M325.6666666666667 173.33333333333334 C390.5757502303046,173.33333333333334 460.0,189.07986167028412 460.0,245.0 C460.0,303.9477571275537 385.2955693905597,316.6666666666667 316.6666666666667,316.6666666666667" stroke="#d82626" fill="none" stroke-width="5.0" stroke-linecap="round"/><path d="M316.6666666666667 316.6666666666667 C271.8888888888889,316.6666666666667 227.11111111111114,316.6666666666667 182.33333333333337,316.6666666666667" stroke="#d82626" fill="none" stroke-width="5.0" stroke-linecap="round"/></svg>