<?xml version="1.0" ?><!DOCTYPE svg  PUBLIC '-//W3C//DTD SVG 1.1//EN'  'http://www.w3.org/Graphics/SVG/1.1/DTD/svg11.dtd'><svg xmlns="http://www.w3.org/2000/svg" width="462.000" height="429.000" viewBox="14.000 30.000 462.000 429.000"><path d="M360.6923076923077 369.71666666666664 C360.6923076923077,377.2583333333333 342.12459023783424,377.2583333333333 327.61538461538464,377.2583333333333 C311.7775236143158,377.2583333333333 294.53846153846155,374.3204286468552 294.53846153846155,360.71666666666664" stroke="#d82626" fill="none" stroke-width="5.0" stroke-linecap="round"/><path d="M294.53846153846155 360.71666666666664 C294.53846153846155,349.68888888888887 294.53846153846155,338.6611111111111 294.53846153846155,327.6333333333333" stroke="#d82626" fill="none" stroke-width="5.0" stroke-linecap="round"/><path d="M294.53846153846155 327.6333333333333 C294.53846153846155,319.7132901155965 293.0719966377036,311.09166666666664 286.2692307692308,311.09166666666664 C279.46646490075796,311.09166666666664 278.0,319.7132901155965 278.0,327.6333333333333" stroke="#d82626" fill="none" stroke-width="5.0" stroke-linecap="round"/><path d="M278.0 327.6333333333333 C278.0,338.6611111111111 278.0,349.68888888888887 278.0,360.71666666666664" stroke="#d82626" fill="none" stroke-width="5.0" stroke-linecap="round"/><path d="M278.0 360.71666666666664 C278.0,371.7444444444444 278.0,382.7722222222222 278.0,393.79999999999995" stroke="#d82626" fill="none" stroke-width="5.0" stroke-linecap="round"/><path d="M278.0 393.79999999999995 C278.0,410.34166666666664 309.93973206797233,410.34166666666664 335.88461538461536,410.34166666666664 C360.2407875777144,410.34166666666664 393.7692307692308,410.34166666666664 393.7692307692308,402.79999999999995" stroke="#d82626" fill="none" stroke-width="5.0" stroke-linecap="round"/><path d="M393.7692307692308 384.79999999999995 C393.7692307692308,313.6055555555555 393.7692307692308,242.41111111111104 393.7692307692308,171.2166666666666" stroke="#d82626" fill="none" stroke-width="5.0" stroke-linecap="round"/><path d="M393.7692307692308 157.2541666666666 C393.7692307692308,153.3944444444444 393.7692307692308,149.53472222222223 393.7692307692308,145.675" stroke="#d82626" fill="none" stroke-width="5.0" stroke-linecap="round"/><path d="M393.7692307692308 145.675 C393.7692307692308,136.53987237421086 401.17316948779654,129.13333333333333 410.30769230769226,129.13333333333333 C426.8461538461538,129.13333333333333 426.8461538461538,286.0458169491666 426.8461538461538,393.79999999999995" stroke="#d82626" fill="none" stroke-width="5.0" stroke-linecap="round"/><path d="M426.8461538461538 393.79999999999995 C426.8461538461538,401.72004321773676 428.31261874691177,410.34166666666664 435.1153846153846,410.34166666666664 C439.5559132060264,410.34166666666664 443.38461538461536,407.10404473128443 443.38461538461536,402.79999999999995" stroke="#d82626" fill="none" stroke-width="5.0" stroke-linecap="round"/><path d="M443.38461538461536 384.79999999999995 C443.38461538461536,263.45141262071326 443.38461538461536,112.59166666666665 369.6923076923077,112.59166666666667" stroke="#d82626" fill="none" stroke-width="5.0" stroke-linecap="round"/><path d="M351.6923076923077 112.59166666666667 C344.97330087813236,112.59166666666667 344.15384615384613,103.87287786685413 344.15384615384613,96.05" stroke="#d82626" fill="none" stroke-width="5.0" stroke-linecap="round"/><path d="M344.15384615384613 96.05 C344.15384615384613,90.53611111111111 344.15384615384613,85.02222222222221 344.15384615384613,79.50833333333333" stroke="#d82626" fill="none" stroke-width="5.0" stroke-linecap="round"/><path d="M344.15384615384613 79.50833333333333 C344.15384615384613,71.58829011559652 342.6873812530881,62.96666666666667 335.88461538461536,62.96666666666667 C331.44408679397355,62.96666666666667 327.6153846153846,66.20428860204885 327.6153846153846,70.50833333333333" stroke="#d82626" fill="none" stroke-width="5.0" stroke-linecap="round"/><path d="M327.6153846153846 84.47083333333333 C327.6153846153846,88.33055555555555 327.6153846153846,92.19027777777777 327.6153846153846,96.05" stroke="#d82626" fill="none" stroke-width="5.0" stroke-linecap="round"/><path d="M327.6153846153846 96.05 C327.6153846153846,112.59166666666667 327.6153846153846,129.13333333333333 327.6153846153846,145.675" stroke="#d82626" fill="none" stroke-width="5.0" stroke-linecap="round"/><path d="M327.6153846153846 145.675 C327.6153846153846,151.18888888888887 327.6153846153846,156.70277777777775 327.6153846153846,162.21666666666664" stroke="#d82626" fill="none" stroke-width="5.0" stroke-linecap="round"/><path d="M327.6153846153846 162.21666666666664 C327.6153846153846,173.04808741088135 339.5714599397981,178.75833333333333 351.6923076923077,178.75833333333333" stroke="#d82626" fill="none" stroke-width="5.0" stroke-linecap="round"/><path d="M369.6923076923077 178.75833333333333 C377.2307692307692,178.75833333333333 377.2307692307692,232.31522726776987 377.2307692307692,269.73749999999995 C377.2307692307692,308.9007649972315 377.2307692307692,360.71666666666664 360.6923076923077,360.71666666666664" stroke="#d82626" fill="none" stroke-width="5.0" stroke-linecap="round"/><path d="M360.6923076923077 360.71666666666664 C341.64102564102564,360.71666666666664 322.5897435897436,360.71666666666664 303.53846153846155,360.71666666666664" stroke="#d82626" fill="none" stroke-width="5.0" stroke-linecap="round"/><path d="M289.5769230769231 360.71666666666664 C287.37179487179486,360.71666666666664 285.1666666666667,360.71666666666664 282.96153846153845,360.71666666666664" stroke="#d82626" fill="none" stroke-width="5.0" stroke-linecap="round"/><path d="M273.03846153846155 360.71666666666664 C269.1794871794872,360.71666666666664 265.3205128205128,360.71666666666664 261.46153846153845,360.71666666666664" stroke="#d82626" fill="none" stroke-width="5.0" stroke-linecap="round"/><path d="M261.46153846153845 360.71666666666664 C250.43589743589743,360.71666666666664 239.41025641025638,360.71666666666664 228.38461538461536,360.71666666666664" stroke="#d82626" fill="none" stroke-width="5.0" stroke-linecap="round"/><path d="M228.38461538461536 360.71666666666664 C184.28205128205124,360.71666666666664 140.17948717948715,360.71666666666664 96.07692307692304,360.71666666666664" stroke="#d82626" fill="none" stroke-width="5.0" stroke-linecap="round"/><path d="M96.07692307692304 360.71666666666664 C90.56410256410254,360.71666666666664 85.05128205128204,360.71666666666664 79.53846153846155,360.71666666666664" stroke="#d82626" fill="none" stroke-width="5.0" stroke-linecap="round"/><path d="M79.53846153846155 360.71666666666664 C75.67948717948721,360.71666666666664 71.82051282051285,360.71666666666664 67.96153846153851,360.71666666666664" stroke="#d82626" fill="none" stroke-width="5.0" stroke-linecap="round"/><path d="M54.00000000000006 360.71666666666664 C46.46153846153846,360.71666666666664 46.46153846153846,342.14454858643325 46.46153846153846,327.6333333333333 C46.46153846153846,307.82903284074416 65.89227227216645,294.55 87.07692307692307,294.55" stroke="#d82626" fill="none" stroke-width="5.0" stroke-linecap="round"/><path d="M105.07692307692307 294.55 C111.79592989109837,294.55 112.61538461538461,285.83121120018745 112.61538461538461,278.0083333333333" stroke="#d82626" fill="none" stroke-width="5.0" stroke-linecap="round"/><path d="M112.61538461538461 278.0083333333333 C112.61538461538461,274.1486111111111 112.61538461538461,270.2888888888889 112.61538461538461,266.4291666666667" stroke="#d82626" fill="none" stroke-width="5.0" stroke-linecap="round"/><path d="M112.61538461538461 252.46666666666664 C112.61538461538461,203.07761742544153 112.61538461538461,145.675 153.23076923076923,145.675" stroke="#d82626" fill="none" stroke-width="5.0" stroke-linecap="round"/><path d="M171.23076923076923 145.675 C195.7948717948718,145.675 220.35897435897434,145.675 244.9230769230769,145.675" stroke="#d82626" fill="none" stroke-width="5.0" stroke-linecap="round"/><path d="M244.9230769230769 145.675 C266.9743589743589,145.675 289.02564102564094,145.675 311.076923076923,145.675" stroke="#d82626" fill="none" stroke-width="5.0" stroke-linecap="round"/><path d="M311.076923076923 145.675 C314.93589743589735,145.675 318.7948717948717,145.675 322.6538461538461,145.675" stroke="#d82626" fill="none" stroke-width="5.0" stroke-linecap="round"/><path d="M336.6153846153845 145.675 C341.6410256410256,145.675 346.6666666666666,145.675 351.6923076923076,145.675" stroke="#d82626" fill="none" stroke-width="5.0" stroke-linecap="round"/><path d="M369.6923076923076 145.675 C374.7179487179487,145.675 379.74358974358967,145.675 384.7692307692307,145.675" stroke="#d82626" fill="none" stroke-width="5.0" stroke-linecap="round"/><path d="M402.7692307692307 145.675 C407.0724706972698,145.675 410.30769230769226,149.50521859077378 410.30769230769226,153.94583333333333 C410.30769230769226,160.74771432342757 401.68816126976515,162.21666666666664 393.7692307692308,162.21666666666664" stroke="#d82626" fill="none" stroke-width="5.0" stroke-linecap="round"/><path d="M393.7692307692308 162.21666666666664 C385.7435897435897,162.21666666666664 377.71794871794873,162.21666666666664 369.6923076923077,162.21666666666664" stroke="#d82626" fill="none" stroke-width="5.0" stroke-linecap="round"/><path d="M351.6923076923077 162.21666666666664 C346.66666666666663,162.21666666666664 341.64102564102564,162.21666666666664 336.6153846153846,162.21666666666664" stroke="#d82626" fill="none" stroke-width="5.0" stroke-linecap="round"/><path d="M322.65384615384613 162.21666666666664 C318.79487179487177,162.21666666666664 314.9358974358974,162.21666666666664 311.07692307692304,162.21666666666664" stroke="#d82626" fill="none" stroke-width="5.0" stroke-linecap="round"/><path d="M311.07692307692304 162.21666666666664 C289.025641025641,162.21666666666664 266.97435897435895,162.21666666666664 244.9230769230769,162.21666666666664" stroke="#d82626" fill="none" stroke-width="5.0" stroke-linecap="round"/><path d="M244.9230769230769 162.21666666666664 C220.35897435897436,162.21666666666664 195.7948717948718,162.21666666666664 171.23076923076925,162.21666666666664" stroke="#d82626" fill="none" stroke-width="5.0" stroke-linecap="round"/><path d="M153.23076923076923 162.21666666666664 C129.15384615384613,162.21666666666664 129.15384615384613,212.2918190561454 129.15384615384613,252.46666666666664" stroke="#d82626" fill="none" stroke-width="5.0" stroke-linecap="round"/><path d="M129.15384615384613 266.4291666666667 C129.15384615384613,270.2888888888889 129.15384615384613,274.1486111111111 129.15384615384613,278.0083333333333" stroke="#d82626" fill="none" stroke-width="5.0" stroke-linecap="round"/><path d="M129.15384615384613 278.0083333333333 C129.15384615384613,292.51954858643325 129.15384615384613,311.09166666666664 136.69230769230768,311.09166666666664" stroke="#d82626" fill="none" stroke-width="5.0" stroke-linecap="round"/><path d="M150.65384615384613 311.09166666666664 C154.5128205128205,311.09166666666664 158.37179487179486,311.09166666666664 162.23076923076923,311.09166666666664" stroke="#d82626" fill="none" stroke-width="5.0" stroke-linecap="round"/><path d="M162.23076923076923 311.09166666666664 C171.36529205066498,311.09166666666664 178.76923076923077,303.6851276257891 178.76923076923077,294.54999999999995 C178.76923076923077,278.1870308587967 157.09230156296616,278.0083333333333 138.15384615384613,278.0083333333333" stroke="#d82626" fill="none" stroke-width="5.0" stroke-linecap="round"/><path d="M124.19230769230768 278.0083333333333 C121.98717948717947,278.0083333333333 119.78205128205127,278.0083333333333 117.57692307692307,278.0083333333333" stroke="#d82626" fill="none" stroke-width="5.0" stroke-linecap="round"/><path d="M107.65384615384615 278.0083333333333 C105.44871794871794,278.0083333333333 103.24358974358972,278.0083333333333 101.03846153846152,278.0083333333333" stroke="#d82626" fill="none" stroke-width="5.0" stroke-linecap="round"/><path d="M87.07692307692307 278.0083333333333 C55.37593930258497,278.0083333333333 29.92307692307692,304.06318651818015 29.923076923076923,335.90416666666664 C29.923076923076927,362.96942082802383 30.65173436947533,393.79999999999995 54.0,393.79999999999995" stroke="#d82626" fill="none" stroke-width="5.0" stroke-linecap="round"/><path d="M67.96153846153847 393.79999999999995 C70.16666666666667,393.79999999999995 72.37179487179488,393.79999999999995 74.57692307692308,393.79999999999995" stroke="#d82626" fill="none" stroke-width="5.0" stroke-linecap="round"/><path d="M84.5 393.79999999999995 C86.7051282051282,393.79999999999995 88.91025641025641,393.79999999999995 91.11538461538461,393.79999999999995" stroke="#d82626" fill="none" stroke-width="5.0" stroke-linecap="round"/><path d="M105.07692307692307 393.79999999999995 C146.17948717948715,393.79999999999995 187.28205128205127,393.79999999999995 228.38461538461536,393.79999999999995" stroke="#d82626" fill="none" stroke-width="5.0" stroke-linecap="round"/><path d="M228.38461538461536 393.79999999999995 C239.41025641025638,393.79999999999995 250.43589743589743,393.79999999999995 261.46153846153845,393.79999999999995" stroke="#d82626" fill="none" stroke-width="5.0" stroke-linecap="round"/><path d="M261.46153846153845 393.79999999999995 C265.3205128205128,393.79999999999995 269.1794871794872,393.79999999999995 273.03846153846155,393.79999999999995" stroke="#d82626" fill="none" stroke-width="5.0" stroke-linecap="round"/><path d="M286.99999999999994 393.79999999999995 C322.58974358974353,393.79999999999995 358.1794871794872,393.79999999999995 393.7692307692308,393.79999999999995" stroke="#d82626" fill="none" stroke-width="5.0" stroke-linecap="round"/><path d="M393.7692307692308 393.79999999999995 C401.79487179487177,393.79999999999995 409.8205128205128,393.79999999999995 417.8461538461538,393.79999999999995" stroke="#d82626" fill="none" stroke-width="5.0" stroke-linecap="round"/><path d="M431.8076923076923 393.79999999999995 C435.6666666666667,393.79999999999995 439.525641025641,393.79999999999995 443.38461538461536,393.79999999999995" stroke="#d82626" fill="none" stroke-width="5.0" stroke-linecap="round"/><path d="M443.38461538461536 393.79999999999995 C454.4143534083093,393.79999999999995 459.9230769230769,406.18995098050965 459.9230769230769,418.61249999999995 C459.9230769230769,443.42499999999995 344.7651315182461,443.42499999999995 261.46153846153845,443.42499999999995 C173.66495442058874,443.42499999999995 63.0,443.42499999999995 63.0,393.79999999999995" stroke="#d82626" fill="none" stroke-width="5.0" stroke-linecap="round"/><path d="M63.0 393.79999999999995 C63.0,382.7722222222222 63.0,371.7444444444444 63.0,360.71666666666664" stroke="#d82626" fill="none" stroke-width="5.0" stroke-linecap="round"/><path d="M63.0 360.71666666666664 C63.0,352.79662344892984 64.46646490075797,344.17499999999995 71.26923076923077,344.17499999999995 C75.70975935987255,344.17499999999995 79.53846153846153,347.41262193538216 79.53846153846153,351.71666666666664" stroke="#d82626" fill="none" stroke-width="5.0" stroke-linecap="round"/><path d="M79.53846153846153 369.71666666666664 C79.53846153846153,377.7444444444444 79.53846153846153,385.7722222222222 79.53846153846153,393.79999999999995" stroke="#d82626" fill="none" stroke-width="5.0" stroke-linecap="round"/><path d="M79.53846153846153 393.79999999999995 C79.53846153846153,426.8833333333333 128.65019011912756,426.8833333333333 170.5,426.8833333333333 C210.96156930489343,426.8833333333333 261.46153846153845,426.8833333333333 261.46153846153845,402.79999999999995" stroke="#d82626" fill="none" stroke-width="5.0" stroke-linecap="round"/><path d="M261.46153846153845 384.79999999999995 C261.46153846153845,379.7722222222222 261.46153846153845,374.7444444444444 261.46153846153845,369.71666666666664" stroke="#d82626" fill="none" stroke-width="5.0" stroke-linecap="round"/><path d="M261.46153846153845 351.71666666666664 C261.46153846153845,346.68888888888887 261.46153846153845,341.6611111111111 261.46153846153845,336.6333333333333" stroke="#d82626" fill="none" stroke-width="5.0" stroke-linecap="round"/><path d="M261.46153846153845 318.6333333333333 C261.46153846153845,261.93665601132915 261.46153846153845,178.75833333333333 253.9230769230769,178.75833333333333" stroke="#d82626" fill="none" stroke-width="5.0" stroke-linecap="round"/><path d="M235.9230769230769 178.75833333333333 C229.20407010890162,178.75833333333333 228.38461538461536,187.47712213314585 228.38461538461536,195.29999999999998" stroke="#d82626" fill="none" stroke-width="5.0" stroke-linecap="round"/><path d="M228.38461538461536 195.29999999999998 C228.38461538461536,236.4111111111111 228.38461538461536,277.52222222222224 228.38461538461536,318.6333333333333" stroke="#d82626" fill="none" stroke-width="5.0" stroke-linecap="round"/><path d="M228.38461538461536 336.6333333333333 C228.38461538461536,341.6611111111111 228.38461538461536,346.6888888888889 228.38461538461536,351.7166666666667" stroke="#d82626" fill="none" stroke-width="5.0" stroke-linecap="round"/><path d="M228.38461538461536 369.7166666666667 C228.38461538461536,374.74444444444447 228.38461538461536,379.7722222222222 228.38461538461536,384.79999999999995" stroke="#d82626" fill="none" stroke-width="5.0" stroke-linecap="round"/><path d="M228.38461538461536 402.79999999999995 C228.38461538461536,410.34166666666664 189.8554455815202,410.34166666666664 162.23076923076923,410.34166666666664 C132.96524121711929,410.34166666666664 96.07692307692307,410.34166666666664 96.07692307692307,393.79999999999995" stroke="#d82626" fill="none" stroke-width="5.0" stroke-linecap="round"/><path d="M96.07692307692307 393.79999999999995 C96.07692307692307,385.7722222222222 96.07692307692307,377.7444444444444 96.07692307692307,369.71666666666664" stroke="#d82626" fill="none" stroke-width="5.0" stroke-linecap="round"/><path d="M96.07692307692307 351.71666666666664 C96.07692307692307,332.6611111111111 96.07692307692307,313.60555555555555 96.07692307692307,294.55" stroke="#d82626" fill="none" stroke-width="5.0" stroke-linecap="round"/><path d="M96.07692307692307 294.55 C96.07692307692307,289.0361111111111 96.07692307692307,283.52222222222224 96.07692307692307,278.0083333333333" stroke="#d82626" fill="none" stroke-width="5.0" stroke-linecap="round"/><path d="M96.07692307692307 278.0083333333333 C96.07692307692307,268.8732057075442 103.48086179548885,261.46666666666664 112.61538461538461,261.46666666666664" stroke="#d82626" fill="none" stroke-width="5.0" stroke-linecap="round"/><path d="M112.61538461538461 261.46666666666664 C118.12820512820512,261.46666666666664 123.64102564102564,261.46666666666664 129.15384615384613,261.46666666666664" stroke="#d82626" fill="none" stroke-width="5.0" stroke-linecap="round"/><path d="M129.15384615384613 261.46666666666664 C148.2051282051282,261.46666666666664 167.25641025641025,261.46666666666664 186.3076923076923,261.46666666666664" stroke="#d82626" fill="none" stroke-width="5.0" stroke-linecap="round"/><path d="M204.3076923076923 261.46666666666664 C211.02669912186758,261.46666666666664 211.84615384615384,252.7478778668541 211.84615384615384,244.92499999999998 C211.84615384615384,235.78987237421083 204.44221512758804,228.38333333333333 195.3076923076923,228.38333333333333" stroke="#d82626" fill="none" stroke-width="5.0" stroke-linecap="round"/><path d="M195.3076923076923 228.38333333333333 C191.44871794871793,228.38333333333333 187.5897435897436,228.38333333333333 183.73076923076923,228.38333333333333" stroke="#d82626" fill="none" stroke-width="5.0" stroke-linecap="round"/><path d="M173.80769230769232 228.38333333333333 C169.94871794871796,228.38333333333333 166.0897435897436,228.38333333333333 162.23076923076923,228.38333333333333" stroke="#d82626" fill="none" stroke-width="5.0" stroke-linecap="round"/><path d="M162.23076923076923 228.38333333333333 C153.09624641087345,228.38333333333333 145.69230769230768,220.9767942924558 145.69230769230768,211.84166666666664 C145.69230769230768,204.0187887998125 146.51176241659394,195.29999999999998 153.23076923076923,195.29999999999998" stroke="#d82626" fill="none" stroke-width="5.0" stroke-linecap="round"/><path d="M171.23076923076923 195.29999999999998 C187.28205128205127,195.29999999999998 203.33333333333331,195.29999999999998 219.38461538461536,195.29999999999998" stroke="#d82626" fill="none" stroke-width="5.0" stroke-linecap="round"/><path d="M237.38461538461536 195.29999999999998 C244.10362219879065,195.29999999999998 244.9230769230769,186.58121120018745 244.9230769230769,178.75833333333333" stroke="#d82626" fill="none" stroke-width="5.0" stroke-linecap="round"/><path d="M244.9230769230769 178.75833333333333 C244.9230769230769,174.8986111111111 244.9230769230769,171.03888888888886 244.9230769230769,167.17916666666665" stroke="#d82626" fill="none" stroke-width="5.0" stroke-linecap="round"/><path d="M244.9230769230769 157.25416666666663 C244.9230769230769,155.0486111111111 244.9230769230769,152.84305555555554 244.9230769230769,150.6375" stroke="#d82626" fill="none" stroke-width="5.0" stroke-linecap="round"/><path d="M244.9230769230769 136.675 C244.9230769230769,123.13333333333334 244.9230769230769,109.59166666666667 244.9230769230769,96.05000000000001" stroke="#d82626" fill="none" stroke-width="5.0" stroke-linecap="round"/><path d="M244.9230769230769 96.05000000000001 C244.9230769230769,67.0105819998486 272.2351521090579,46.425 302.80769230769226,46.425 C328.75257562433535,46.425 360.6923076923077,46.425 360.6923076923077,62.96666666666667 C360.6923076923077,70.7895445335208 359.87285296802145,79.50833333333333 353.15384615384613,79.50833333333333" stroke="#d82626" fill="none" stroke-width="5.0" stroke-linecap="round"/><path d="M339.1923076923077 79.50833333333333 C335.3333333333333,79.50833333333333 331.47435897435895,79.50833333333333 327.6153846153846,79.50833333333333" stroke="#d82626" fill="none" stroke-width="5.0" stroke-linecap="round"/><path d="M327.6153846153846 79.50833333333333 C318.4808617954888,79.50833333333333 311.07692307692304,86.91487237421086 311.07692307692304,96.05" stroke="#d82626" fill="none" stroke-width="5.0" stroke-linecap="round"/><path d="M311.07692307692304 96.05 C311.07692307692304,109.59166666666665 311.07692307692304,123.13333333333333 311.07692307692304,136.67499999999998" stroke="#d82626" fill="none" stroke-width="5.0" stroke-linecap="round"/><path d="M311.07692307692304 150.6375 C311.07692307692304,152.84305555555554 311.07692307692304,155.0486111111111 311.07692307692304,157.25416666666663" stroke="#d82626" fill="none" stroke-width="5.0" stroke-linecap="round"/><path d="M311.07692307692304 171.21666666666664 C311.07692307692304,234.43111785919916 311.07692307692304,327.6333333333333 303.53846153846155,327.6333333333333" stroke="#d82626" fill="none" stroke-width="5.0" stroke-linecap="round"/><path d="M289.5769230769231 327.6333333333333 C287.37179487179486,327.6333333333333 285.1666666666667,327.6333333333333 282.96153846153845,327.6333333333333" stroke="#d82626" fill="none" stroke-width="5.0" stroke-linecap="round"/><path d="M273.03846153846155 327.6333333333333 C269.1794871794872,327.6333333333333 265.3205128205128,327.6333333333333 261.46153846153845,327.6333333333333" stroke="#d82626" fill="none" stroke-width="5.0" stroke-linecap="round"/><path d="M261.46153846153845 327.6333333333333 C250.43589743589743,327.6333333333333 239.41025641025638,327.6333333333333 228.38461538461536,327.6333333333333" stroke="#d82626" fill="none" stroke-width="5.0" stroke-linecap="round"/><path d="M228.38461538461536 327.6333333333333 C220.35897435897434,327.6333333333333 212.33333333333331,327.6333333333333 204.3076923076923,327.6333333333333" stroke="#d82626" fill="none" stroke-width="5.0" stroke-linecap="round"/><path d="M186.3076923076923 327.6333333333333 C178.28205128205127,327.6333333333333 170.25641025641025,327.6333333333333 162.23076923076923,327.6333333333333" stroke="#d82626" fill="none" stroke-width="5.0" stroke-linecap="round"/><path d="M162.23076923076923 327.6333333333333 C153.09624641087345,327.6333333333333 145.69230769230768,320.2267942924558 145.69230769230768,311.09166666666664" stroke="#d82626" fill="none" stroke-width="5.0" stroke-linecap="round"/><path d="M145.69230769230768 311.09166666666664 C145.69230769230768,303.17162344892984 147.1587725930657,294.55 153.96153846153845,294.55 C158.40206705218023,294.55 162.23076923076923,297.78762193538216 162.23076923076923,302.09166666666664" stroke="#d82626" fill="none" stroke-width="5.0" stroke-linecap="round"/><path d="M162.23076923076923 316.0541666666667 C162.23076923076923,318.2597222222222 162.23076923076923,320.46527777777777 162.23076923076923,322.6708333333333" stroke="#d82626" fill="none" stroke-width="5.0" stroke-linecap="round"/><path d="M162.23076923076923 336.6333333333333 C162.23076923076923,343.3514746456598 170.9472409662741,344.17499999999995 178.76923076923077,344.17499999999995 C187.90375358912652,344.17499999999995 195.3076923076923,336.7684609591225 195.3076923076923,327.6333333333333" stroke="#d82626" fill="none" stroke-width="5.0" stroke-linecap="round"/><path d="M195.3076923076923 327.6333333333333 C195.3076923076923,305.5777777777778 195.3076923076923,283.52222222222224 195.3076923076923,261.46666666666664" stroke="#d82626" fill="none" stroke-width="5.0" stroke-linecap="round"/><path d="M195.3076923076923 261.46666666666664 C195.3076923076923,253.43888888888887 195.3076923076923,245.4111111111111 195.3076923076923,237.38333333333333" stroke="#d82626" fill="none" stroke-width="5.0" stroke-linecap="round"/><path d="M195.3076923076923 219.38333333333333 C195.3076923076923,215.07928860204885 191.47899012910332,211.84166666666667 187.03846153846155,211.84166666666667 C180.23569566998876,211.84166666666667 178.76923076923077,220.46329011559652 178.76923076923077,228.38333333333333" stroke="#d82626" fill="none" stroke-width="5.0" stroke-linecap="round"/><path d="M178.76923076923077 228.38333333333333 C178.76923076923077,236.30337655107013 177.3027658684728,244.92499999999998 170.5,244.92499999999998 C166.05947140935822,244.92499999999998 162.23076923076923,241.6873780646178 162.23076923076923,237.38333333333333" stroke="#d82626" fill="none" stroke-width="5.0" stroke-linecap="round"/><path d="M162.23076923076923 219.38333333333333 C162.23076923076923,211.35555555555555 162.23076923076923,203.32777777777775 162.23076923076923,195.29999999999998" stroke="#d82626" fill="none" stroke-width="5.0" stroke-linecap="round"/><path d="M162.23076923076923 195.29999999999998 C162.23076923076923,184.2722222222222 162.23076923076923,173.2444444444444 162.23076923076923,162.21666666666664" stroke="#d82626" fill="none" stroke-width="5.0" stroke-linecap="round"/><path d="M162.23076923076923 162.21666666666664 C162.23076923076923,156.70277777777775 162.23076923076923,151.18888888888887 162.23076923076923,145.67499999999998" stroke="#d82626" fill="none" stroke-width="5.0" stroke-linecap="round"/><path d="M162.23076923076923 145.67499999999998 C162.23076923076923,112.7869243049309 198.96048326274396,96.05 235.9230769230769,96.05" stroke="#d82626" fill="none" stroke-width="5.0" stroke-linecap="round"/><path d="M253.9230769230769 96.05 C269.97435897435895,96.05 286.025641025641,96.05 302.07692307692304,96.05" stroke="#d82626" fill="none" stroke-width="5.0" stroke-linecap="round"/><path d="M316.03846153846155 96.05 C318.2435897435897,96.05 320.4487179487179,96.05 322.6538461538461,96.05" stroke="#d82626" fill="none" stroke-width="5.0" stroke-linecap="round"/><path d="M332.57692307692304 96.05 C334.78205128205127,96.05 336.98717948717945,96.05 339.1923076923077,96.05" stroke="#d82626" fill="none" stroke-width="5.0" stroke-linecap="round"/><path d="M353.15384615384613 96.05 C359.87285296802145,96.05 360.6923076923077,104.76878879981254 360.6923076923077,112.59166666666667" stroke="#d82626" fill="none" stroke-width="5.0" stroke-linecap="round"/><path d="M360.6923076923077 112.59166666666667 C360.6923076923077,123.61944444444444 360.6923076923077,134.64722222222224 360.6923076923077,145.675" stroke="#d82626" fill="none" stroke-width="5.0" stroke-linecap="round"/><path d="M360.6923076923077 145.675 C360.6923076923077,151.18888888888887 360.6923076923077,156.70277777777775 360.6923076923077,162.21666666666664" stroke="#d82626" fill="none" stroke-width="5.0" stroke-linecap="round"/><path d="M360.6923076923077 162.21666666666664 C360.6923076923077,167.73055555555553 360.6923076923077,173.24444444444444 360.6923076923077,178.75833333333333" stroke="#d82626" fill="none" stroke-width="5.0" stroke-linecap="round"/><path d="M360.6923076923077 178.75833333333333 C360.6923076923077,236.4111111111111 360.6923076923077,294.06388888888887 360.6923076923077,351.71666666666664" stroke="#d82626" fill="none" stroke-width="5.0" stroke-linecap="round"/></svg>