<?xml version="1.0" ?><!DOCTYPE svg  PUBLIC '-//W3C//DTD SVG 1.1//EN'  'http://www.w3.org/Graphics/SVG/1.1/DTD/svg11.dtd'><svg xmlns="http://www.w3.org/2000/svg" width="462.000" height="462.000" viewBox="14.000 14.000 462.000 462.000"><path d="M316.6666666666667 316.66666666666663 C316.6666666666667,395.8274808090804 252.49414747574707,460.0 173.33333333333334,460.0 C94.17251919091962,460.0 30.0,395.8274808090804 30.0,316.6666666666667 C30.0,239.09019788386718 88.45020203080026,173.33333333333334 164.33333333333334,173.33333333333334" stroke="#d82626" fill="none" stroke-width="5.0" stroke-linecap="round"/><path d="M182.33333333333334 173.33333333333334 C227.11111111111114,173.33333333333334 271.8888888888889,173.33333333333334 316.6666666666667,173.33333333333334" stroke="#d82626" fill="none" stroke-width="5.0" stroke-linecap="round"/><path d="M316.6666666666667 173.33333333333334 C385.2955693905597,173.33333333333334 460.0,186.05224287244627 460.0,245.0 C460.0,300.9201383297159 390.5757502303046,316.6666666666667 325.6666666666667,316.6666666666667" stroke="#d82626" fill="none" stroke-width="5.0" stroke-linecap="round"/><path d="M307.6666666666667 316.6666666666667 C231.78353536413363,316.6666666666667 173.33333333333334,250.90980211613288 173.33333333333334,173.33333333333334" stroke="#d82626" fill="none" stroke-width="5.0" stroke-linecap="round"/><path d="M173.33333333333334 173.33333333333334 C173.33333333333334,104.7044306094403 186.05224287244627,30.0 245.0,30.0 C300.9201383297159,30.0 316.6666666666667,99.4242497696954 316.6666666666667,164.33333333333334" stroke="#d82626" fill="none" stroke-width="5.0" stroke-linecap="round"/><path d="M316.6666666666667 182.33333333333334 C316.6666666666667,227.1111111111111 316.6666666666667,271.88888888888886 316.6666666666667,316.66666666666663" stroke="#d82626" fill="none" stroke-width="5.0" stroke-linecap="round"/></svg>